<?xml version="1.0" encoding="UTF-8" standalone="no"?>
<svg
   enable-background="new 0 0 595.28 841.89"
   version="1.1"
   viewBox="0 0 299.99999 299.99999"
   xml:space="preserve"
   id="svg20"
   sodipodi:docname="help.svg"
   width="300"
   height="300"
   inkscape:version="1.1.1 (3bf5ae0d25, 2021-09-20)"
   xmlns:inkscape="http://www.inkscape.org/namespaces/inkscape"
   xmlns:sodipodi="http://sodipodi.sourceforge.net/DTD/sodipodi-0.dtd"
   xmlns="http://www.w3.org/2000/svg"
   xmlns:svg="http://www.w3.org/2000/svg"><defs
   id="defs24" /><sodipodi:namedview
   id="namedview22"
   pagecolor="#ffffff"
   bordercolor="#666666"
   borderopacity="1.0"
   inkscape:pageshadow="2"
   inkscape:pageopacity="0.0"
   inkscape:pagecheckerboard="0"
   showgrid="false"
   fit-margin-top="0"
   fit-margin-left="0"
   fit-margin-right="0"
   fit-margin-bottom="0"
   inkscape:zoom="0.5606433"
   inkscape:cx="41.916134"
   inkscape:cy="201.55418"
   inkscape:window-width="1280"
   inkscape:window-height="680"
   inkscape:window-x="-6"
   inkscape:window-y="0"
   inkscape:window-maximized="0"
   inkscape:current-layer="svg20" />
<g
   display="none"
   id="g6"
   transform="translate(-147.26001,-270.94)">
	<path
   d="m 297.85,349.1 c 0,6.256 -4.941,11.327 -11.035,11.327 h -177.93 c -6.095,0 -11.035,-5.071 -11.035,-11.327 V 171.76 c 0,-6.257 4.94,-11.328 11.035,-11.328 h 177.93 c 6.094,0 11.035,5.071 11.035,11.328 z"
   display="inline"
   fill="#90a4ae"
   id="path2" />
	<path
   d="m 197.85,160.43 h -88.965 c -6.095,0 -11.035,5.071 -11.035,11.328 v 177.34 c 0,6.256 4.94,11.327 11.035,11.327 h 88.965 v -200 z"
   display="inline"
   fill="#78909c"
   id="path4" />
</g>
	<circle
   cx="150"
   cy="150"
   r="150"
   fill="#00a995"
   id="circle8"
   style="fill:#808080" />
	
		<path
   d="m 90.90999,109.52 c 0,-7.64 2.452,-15.382002 7.359,-23.223002 4.904,-7.842 12.064,-14.336 21.475,-19.484 9.41,-5.146 20.389,-7.722 32.936,-7.722 11.66,0 21.957,2.153 30.885,6.455 8.927,4.304 15.822,10.155 20.69,17.554 4.865,7.401 7.298,15.442 7.298,24.128002 0,6.837 -1.387,12.83 -4.161,17.976 -2.775,5.148 -6.075,9.591 -9.894,13.331 -3.821,3.74 -10.678,10.035 -20.57,18.88 -2.734,2.495 -4.927,4.687 -6.575,6.575 -1.648,1.891 -2.875,3.619 -3.679,5.188 -0.806,1.567 -1.43,3.137 -1.87,4.704 -0.443,1.569 -1.107,4.324 -1.991,8.265 -1.528,8.365 -6.313,12.547 -14.355,12.547 -4.184,0 -7.703,-1.367 -10.557,-4.102 -2.856,-2.733 -4.283,-6.796 -4.283,-12.186 0,-6.756 1.044,-12.607 3.137,-17.554 2.09,-4.946 4.865,-9.29 8.324,-13.029 3.458,-3.74 8.123,-8.183 13.995,-13.331 5.146,-4.503 8.867,-7.902 11.16,-10.194 2.291,-2.292 4.222,-4.845 5.79,-7.661 1.568,-2.814 2.353,-5.87 2.353,-9.168 0,-6.434 -2.394,-11.863002 -7.178,-16.287002 -4.787,-4.422 -10.96,-6.635 -18.519,-6.635 -8.849,0 -15.364,2.232 -19.545,6.696 -4.183,4.463 -7.721,11.039002 -10.617,19.725002 -2.735,9.09 -7.923,13.632 -15.563,13.632 -4.505,0 -8.305,-1.587 -11.401,-4.765 -3.097,-3.175 -4.644,-6.614 -4.644,-10.315 z m 58.874,132.22 c -4.906,0 -9.19,-1.589 -12.848,-4.766 -3.661,-3.177 -5.489,-7.618 -5.489,-13.331 0,-5.066 1.768,-9.329 5.308,-12.788 3.538,-3.457 7.881,-5.188 13.029,-5.188 5.067,0 9.329,1.73 12.789,5.188 3.457,3.459 5.188,7.722 5.188,12.788 0,5.632 -1.811,10.055 -5.429,13.271 -3.62,3.216 -7.804,4.826 -12.548,4.826 z"
   fill="#ffffff"
   id="path12" />
	<g
   fill="#d4effc"
   id="g18"
   transform="translate(-147.26001,-270.94)">
		
		
	</g>
</svg>
